<svg xmlns="http://www.w3.org/2000/svg" viewBox="0 0 80 80" width="35" height="35"><path d="M50 7C37.309 7 27 17.309 27 30c0 5.094 1.664 9.8 4.473 13.613l-4.246 4.246a3.06 3.06 0 0 0-1.055-.199c-.77 0-1.54.293-2.121.875L7.879 64.707a3.013 3.013 0 0 0 0 4.242l3.172 3.172a3.013 3.013 0 0 0 4.242 0L31.465 55.95c.851-.851 1.074-2.105.676-3.176l4.246-4.246A22.875 22.875 0 0 0 50 53c12.691 0 23-10.309 23-23S62.691 7 50 7Zm0 2c11.61 0 21 9.39 21 21s-9.39 21-21 21-21-9.39-21-21S38.39 9 50 9Zm0 2c-.55 0-1 .45-1 1s.45 1 1 1 1-.45 1-1-.45-1-1-1Zm-4.652.613h-.067c-.07.008-.133.016-.199.035a1 1 0 1 0 .516 1.93.999.999 0 0 0-.25-1.965Zm9.304 0a.999.999 0 0 0-.25 1.965.998.998 0 1 0 .516-1.93 1.012 1.012 0 0 0-.266-.035ZM40.977 13.41a.976.976 0 0 0-.477.137.99.99 0 0 0-.367 1.363c.133.23.351.399.61.469a1 1 0 1 0 .234-1.969Zm17.976.004a1 1 0 1 0 .093 1.999 1 1 0 0 0-.093-1.999ZM37.285 16.27c-.27 0-.531.105-.722.293a1.012 1.012 0 0 0 0 1.417c.39.387 1.027.387 1.417 0a1.012 1.012 0 0 0 0-1.418 1.013 1.013 0 0 0-.695-.292Zm25.457 0a1.003 1.003 0 0 0-.722 1.71c.39.387 1.023.387 1.414 0 .39-.39.39-1.027 0-1.418a1.013 1.013 0 0 0-.692-.292Zm2.82 3.73a1 1 0 0 0-.844 1.5 1.002 1.002 0 0 0 1.735-1 1.003 1.003 0 0 0-.89-.5Zm-31.199 0c-.336.02-.644.207-.816.5a.996.996 0 0 0 .363 1.363 1 1 0 0 0 1.367-.363.994.994 0 0 0-.367-1.363.993.993 0 0 0-.547-.137Zm-1.758 4.344a1 1 0 0 0-.96.738c-.141.535.175 1.082.71 1.227a.997.997 0 0 0 1.223-.707 1 1 0 0 0-.973-1.258Zm34.79 0c-.024-.004-.047 0-.07 0a1 1 0 0 0-.902 1.258.993.993 0 0 0 1.222.707.988.988 0 0 0 .609-.465 1 1 0 0 0-.86-1.5ZM32 29c-.55 0-1 .45-1 1s.45 1 1 1 1-.45 1-1-.45-1-1-1Zm36 0c-.55 0-1 .45-1 1s.45 1 1 1 1-.45 1-1-.45-1-1-1Zm-35.348 4.66a1.005 1.005 0 0 0-1.008 1.258 1 1 0 0 0 1.227.707.997.997 0 0 0 .707-1.223.996.996 0 0 0-.926-.742Zm34.723 0a.994.994 0 0 0-.953.742.986.986 0 0 0 .098.758c.132.23.351.399.609.465a1 1 0 0 0 1.226-.703 1.005 1.005 0 0 0-.98-1.262ZM34.387 38c-.168.004-.328.05-.477.133a1.016 1.016 0 0 0-.465.61.974.974 0 0 0 .102.757.97.97 0 0 0 .605.465.97.97 0 0 0 .758-.102.994.994 0 0 0 .367-1.363 1.003 1.003 0 0 0-.89-.5Zm31.156.004a1.007 1.007 0 0 0-.824.496 1.008 1.008 0 0 0 .371 1.371 1 1 0 0 0 1.363-.371.997.997 0 0 0-.91-1.496ZM37.285 41.73a1.016 1.016 0 0 0-.722.29 1.012 1.012 0 0 0 0 1.417c.39.387 1.027.387 1.417 0a1.012 1.012 0 0 0 0-1.417.992.992 0 0 0-.695-.29Zm25.457 0a.984.984 0 0 0-.722.29c-.391.39-.391 1.027 0 1.417.39.387 1.023.387 1.414 0 .39-.39.39-1.027 0-1.417a.992.992 0 0 0-.692-.29Zm-3.77 2.86a.965.965 0 0 0-.472.129 1.002 1.002 0 0 0 1 1.734c.227-.133.395-.351.465-.61a.974.974 0 0 0-.102-.757.988.988 0 0 0-.89-.496Zm-18.019 0a.99.99 0 0 0-.82.5.994.994 0 0 0 .367 1.363.97.97 0 0 0 .758.102.97.97 0 0 0 .605-.465.975.975 0 0 0 .102-.758 1.016 1.016 0 0 0-.465-.61 1.006 1.006 0 0 0-.547-.132Zm-8.219.59a23.89 23.89 0 0 0 2.086 2.086l-3.898 3.898-2.086-2.086Zm12.598 1.21a.999.999 0 0 0-.25 1.965 1 1 0 0 0 1.125-1.468 1.016 1.016 0 0 0-.61-.465.869.869 0 0 0-.265-.031Zm9.367 0a1.002 1.002 0 0 0-1.008 1.254c.145.536.692.852 1.227.711a1 1 0 0 0-.219-1.964ZM50 47c-.55 0-1 .45-1 1s.45 1 1 1 1-.45 1-1-.45-1-1-1Zm-23.828 2.652c.254 0 .504.098.703.297l3.176 3.172a.986.986 0 0 1 0 1.414L13.879 70.707a.986.986 0 0 1-1.414 0l-3.172-3.172a.986.986 0 0 1 0-1.414L11 64.414l2.293 2.293 1.414-1.414L12.414 63 14 61.414l2.293 2.293 1.414-1.414L15.414 60 17 58.414l2.293 2.293 1.414-1.414L18.414 57 20 55.414l2.293 2.293 1.414-1.414L21.414 54 23 52.414l2.293 2.293 1.414-1.414L24.414 51l1.05-1.05c.2-.2.454-.298.708-.298Z"/></svg>